<?xml version="1.0" encoding="utf-8"?>
<!-- Generator: Adobe Illustrator 25.4.0, SVG Export Plug-In . SVG Version: 6.00 Build 0)  -->
<svg version="1.1" baseProfile="tiny" id="Ebene_1" xmlns="http://www.w3.org/2000/svg" xmlns:xlink="http://www.w3.org/1999/xlink"
	 x="0px" y="0px" width="24.00001px" height="24.00001px" viewBox="0 0 24.00001 24.00001" overflow="visible" xml:space="preserve"
	>
<path fill="none" d="M0,0h24v24H0V0z"/>
<path fill="#686868" d="M12.00543,2.03247H12c-5.51235,0.0015-9.97978,4.47136-9.97828,9.98372
	c0.0015,5.51235,4.47136,9.97978,9.98372,9.97828s9.97978-4.47136,9.97828-9.98371
	C21.98222,6.50052,17.51566,2.03397,12.00543,2.03247z M12,20c-4.40931,0.00001-7.98377-3.57445-7.98378-7.98376
	c0-4.40931,3.57445-7.98377,7.98376-7.98378c4.40931,0,7.98377,3.57445,7.98378,7.98376c0,0.00001,0,0.00001,0,0.00002
	C19.98376,16.42555,16.40931,19.99999,12,20z M12,9c-1.65685,0-3,1.34315-3,3s1.34315,3,3,3s3-1.34315,3-3S13.65685,9,12,9z M12,13
	c-0.55229,0-1-0.44771-1-1c0.00721-0.54927,0.45073-0.99279,1-1c0.55229,0,1,0.44771,1,1S12.55229,13,12,13z M12,5.50018
	c-3.58813,0.00415-6.49585,2.91187-6.5,6.5h2c0.00272-2.48416,2.01584-4.49728,4.5-4.5V5.50018z"/>
</svg>
