<svg xmlns="http://www.w3.org/2000/svg"><symbol id="icon-cross" viewBox="0 0 32 32"><path d="M31.7 25.7L22 16l9.7-9.7a1 1 0 0 0 0-1.4L27.1.3a1 1 0 0 0-1.4 0L16 10 6.3.3a1 1 0 0 0-1.4 0L.3 4.9a1 1 0 0 0 0 1.4L10 16 .3 25.7a1 1 0 0 0 0 1.4l4.6 4.6a1 1 0 0 0 1.4 0L16 22l9.7 9.7a1 1 0 0 0 1.4 0l4.6-4.6a1 1 0 0 0 0-1.4z"/></symbol><symbol id="icon-pin" viewBox="0 0 14 20"><path d="M7 6.9c.8 0 1.5.7 1.5 1.5S7.8 9.9 7 9.9s-1.5-.7-1.5-1.5.7-1.5 1.5-1.5zm0-3c-2.5 0-4.5 2-4.5 4.5 0 .8.2 1.7.7 2.4l3.8 6 3.8-6c.5-.7.7-1.6.7-2.4 0-2.5-2-4.5-4.5-4.5m0-1.5a6 6 0 0 1 5.1 9.2l-5.1 8-5.1-8A6 6 0 0 1 7 2.4z"/></symbol><symbol id="icon-triangleDown" viewBox="0 0 100 100"><path d="M50 75l45-50H5z"/></symbol><symbol id="icon-triangleUp" viewBox="0 0 100 100"><path d="M50 25l45 50H5z"/></symbol><symbol id="icon-envelope" viewBox="0 0 14 14"><title>envelope-o</title><path fill="#444" d="M13 11.75v-6q-.25.28-.54.52-2.1 1.6-3.33 2.64l-.64.52q-.24.19-.68.38T7 10h-.02q-.37 0-.8-.2t-.67-.37-.65-.52Q3.63 7.88 1.54 6.27q-.29-.24-.54-.52v6q0 .1.07.18t.18.07h11.5q.1 0 .18-.07t.07-.18zm0-8.21v-.2-.1l-.03-.1-.04-.06-.07-.06-.1-.02H1.25q-.11 0-.18.07T1 3.25q0 1.31 1.15 2.22l3.13 2.48.28.23.35.29.35.24q.23.15.4.22t.33.07h.02q.16 0 .34-.07t.39-.22.35-.24.36-.3.27-.22l3.13-2.48q.43-.34.79-.9T13 3.54zm1-.29v8.5q0 .52-.37.88t-.88.37H1.25q-.52 0-.88-.37T0 11.75v-8.5q0-.52.37-.88T1.25 2h11.5q.52 0 .88.37t.37.88z"/></symbol><symbol id="icon-facebook" viewBox="0 0 512 512"><path d="M482.6-1.1L29.4.5C13.9.5 1.3 13.1 1.3 28.6v457c0 15.5 12.6 28.1 28.1 28.1h244v-201H207v-76.9h66.4V179c0-65.9 40.3-101.6 98.9-101.6 28.1 0 52.3 2.1 59.4 3.1v68.7H391c-31.9 0-38.2 15.1-38.2 37.4v49.1H429l-9.9 76.9h-66.2v201.2h129.8c15.5 0 28.1-14.2 28.1-29.7V27a28.02 28.02 0 0 0-28.2-28.1z"/></symbol><symbol id="icon-home" viewBox="0 0 13 14"><title>home</title><path fill="#444" d="M11 7.75v3.75q0 .2-.15.35t-.35.15h-3V9h-2v3h-3q-.2 0-.35-.15T2 11.5V7.75v-.02-.03L6.5 4 11 7.7v.05zm1.74-.54l-.48.58q-.06.07-.17.09h-.02q-.1 0-.16-.06l-5.4-4.5-5.41 4.5q-.1.06-.2.06-.1-.02-.16-.1l-.48-.57Q.2 7.13.21 7.03t.08-.17l5.62-4.68q.25-.2.6-.2t.59.2L9 3.78V2.24q0-.1.07-.18T9.25 2h1.5q.11 0 .18.07t.07.18v3.19l1.71 1.42q.08.06.09.17t-.06.18z"/></symbol><symbol id="icon-instagram" viewBox="0 0 512 512"><path d="M256.7 47.3c68.2 0 76.3.3 103.2 1.5 24.9 1.1 38.4 5.3 47.4 8.8 11.9 4.6 20.4 10.2 29.4 19.1 8.9 8.9 14.5 17.4 19.1 29.4 3.5 9 7.7 22.5 8.8 47.4 1.2 26.9 1.5 35 1.5 103.2s-.3 76.3-1.5 103.2c-1.1 24.9-5.3 38.4-8.8 47.4-4.6 11.9-10.2 20.4-19.1 29.4-8.9 8.9-17.4 14.5-29.4 19.1-9 3.5-22.5 7.7-47.4 8.8-26.9 1.2-35 1.5-103.2 1.5s-76.3-.3-103.2-1.5c-24.9-1.1-38.4-5.3-47.4-8.8-11.9-4.6-20.4-10.2-29.4-19.1-8.9-8.9-14.5-17.4-19.1-29.4-3.5-9-7.7-22.5-8.8-47.4-1.2-26.9-1.5-35-1.5-103.2s.3-76.3 1.5-103.2c1.1-24.9 5.3-38.4 8.8-47.4 4.6-11.9 10.2-20.4 19.1-29.4 8.9-8.9 17.4-14.5 29.4-19.1 9-3.5 22.5-7.7 47.4-8.8 26.9-1.2 35-1.5 103.2-1.5m0-46c-69.3 0-78 .3-105.3 1.5-27.2 1.2-45.7 5.6-62 11.9-16.8 6.5-31 15.3-45.2 29.5S21.3 72.6 14.7 89.4c-6.3 16.2-10.6 34.8-11.9 62-1.2 27.2-1.5 35.9-1.5 105.3s.3 78 1.5 105.3c1.2 27.2 5.6 45.7 11.9 62 6.5 16.8 15.3 31 29.5 45.2 14.2 14.2 28.4 22.9 45.2 29.5 16.2 6.3 34.8 10.6 62 11.9 27.2 1.2 35.9 1.5 105.3 1.5s78-.3 105.3-1.5c27.2-1.2 45.7-5.6 62-11.9 16.8-6.5 31-15.3 45.2-29.5 14.2-14.2 22.9-28.4 29.5-45.2 6.3-16.2 10.6-34.8 11.9-62 1.2-27.2 1.5-35.9 1.5-105.3s-.3-78-1.5-105.3c-1.2-27.2-5.6-45.7-11.9-62-6.5-16.8-15.3-31-29.5-45.2S440.8 21.3 424 14.7c-16.2-6.3-34.8-10.6-62-11.9-27.3-1.2-36-1.5-105.3-1.5zm0 124.3c-72.4 0-131.1 58.7-131.1 131.1s58.7 131.1 131.1 131.1 131.1-58.7 131.1-131.1-58.7-131.1-131.1-131.1zm0 216.2a85.1 85.1 0 1 1 0-170.2 85.1 85.1 0 0 1 0 170.2zm166.9-221.4a30.6 30.6 0 1 1-61.2 0c0-16.9 13.6-30.7 30.6-30.7 16.9 0 30.6 13.7 30.6 30.7z"/></symbol><symbol id="icon-kununu" viewBox="0 0 512 512"><path d="M483.8-.1H28.2A28.3 28.3 0 0 0 0 28.1v455.6a28.3 28.3 0 0 0 28.2 28.2l455.6.2a28.3 28.3 0 0 0 28.2-28.2V28.1c0-15.7-12.5-28.2-28.2-28.2zM329.7 366.8c-.2 28.8 0 57.6-1.2 86.4.4 5.2-4.6 10-9.8 9.8-20.5.2-41.1 0-61.6 0-2.7 0-5.8.2-8.1-1.7-3.6-2.1-4.8-6.5-4.8-10.4 0-28 0-56-.2-84.1 1-16.9-9.8-33.4-25.3-39.9-11.1-5-23.6-2.9-35.5-3.5-13.4-.8-27.1 5-35.5 15.7-7.3 8.4-9.4 20-9.8 30.9v83.1c.2 5.6-5.2 10.4-10.7 9.8-21.3 0-42.6.2-63.9 0-4.4 0-7.9-3.5-9.2-7.5-.4-131.8-.2-263.6-.4-395.4-.5-6 4.8-11.4 10.8-11h62.9c4.8-.4 9.4 3.1 10.7 7.7.4 2.9.2 5.9.2 8.8v179c14.4-4 29-7.1 43.9-6.7 10-.2 20.1 1 29.9-1.5 14.2-3.6 26.1-15.4 29.7-29.7 1.9-6.9 1-14 2.1-21.1.8-4.6-.2-9.6 1.7-14 1.7-3.5 5.6-5.9 9.4-5.8h63.7c5.6-.2 10.2 5.2 10.4 10.6 0 15.7.6 31.7-3.1 47.2-4.4 20.5-14.2 39.7-28 55.7-1.2 1.2.2 2.3 1 3.1 20.1 23.1 31.5 53.8 30.7 84.5zm79.6-229.7l-12.7 12.7c-2.3 2.3-4.4 4.8-7.5 6.3-5.8 3.5-13.2 3.6-19.4.6-3.6-1.7-6.5-5-9.2-7.9-6.1-7.3-6.1-19 .2-26.1 5-5.8 10.7-10.6 15.9-16.1 1-.8 1.7-1.9 3.1-2.3 2.9-1 5.4 1 7.1 3.1 2.3 2.1 2.5 6.1.2 8.3-5 4.8-9.8 9.8-14.8 14.6-1.7 1.5-2.9 4-2.5 6.3.4 2.7 2.7 4.4 4.6 6.3 2.3 2.5 6.7 2.5 9 0l14-14c1.3-1.3 2.9-3.1 5-3.1 2.7-.4 4.8 1.9 6.3 3.6 2.5 2.3 2.7 5.8.7 7.7zm-.2-63.3c-1.7 1.7-3.6 4-6.3 3.6-2.5.2-4-2.1-5.8-3.6-4.4-4.4-8.8-9-13.4-13.2-2.3-2.3-6.3-2.5-8.6-.4a23 23 0 0 0-4.2 4.6c-1.2 2.5-1 5.8 1.2 7.7 5.2 5.4 10.6 10.4 15.5 15.7 1.7 1.7 1.9 4.8.4 6.9-1 1.2-1.9 2.1-3.1 3.1-1.9 1.7-5.4 1.7-7.1-.2l-15.9-15.9c-5.9-5.9-7.3-15.5-3.8-23 1.5-3.6 4.6-6.3 7.3-9 2.9-2.7 6.3-4.4 10.2-5 6.3-1.2 13.4 1 18 5.8l15.7 15.7c2.1 1.6 2.1 5.1-.1 7.2zm58.8 71.6c-1.9 3.6-5 6.3-7.9 9-7.5 6.1-19.2 5.8-26.3-.6-5.4-5.2-10.7-10.7-16.1-15.9-1.9-1.7-2.7-5-1.2-7.3 1-1.3 2.1-2.5 3.3-3.5 1.9-1.5 5.2-1.7 6.9.2 5.4 5.2 10.6 10.6 15.7 15.7 1.9 2.1 5.4 2.5 7.9 1.2 1.9-1.3 3.5-2.9 4.8-4.8 1.9-2.5 1.3-6.1-.8-8.3l-14-14c-1.3-1.3-3.1-2.7-3.1-4.8-.4-3.5 2.7-6.1 5.4-7.7 2.1-.8 4.6-.4 6.1 1.3l13.2 13.2c2.3 2.3 4.6 4.6 5.9 7.7 3.2 5.7 3.2 12.8.2 18.6zm-.6-67c-1.3 2.5-3.5 4.2-5.4 6.1L449 97.4a5.5 5.5 0 0 1-7.7.2c-1.9-1.7-4.2-3.8-3.8-6.7 0-2.1 1.5-3.5 2.9-4.8l14.4-14.4c1.3-1.3 1.9-3.5 1.5-5.4-.4-2.9-2.9-4.6-4.8-6.3a6.53 6.53 0 0 0-9 .4c-5.2 5-10.2 10.2-15.4 15.4-2.1 2.5-6.5 1.9-8.4-.6-2.5-1.9-4.2-5.8-1.9-8.4 5.4-5.6 10.9-10.9 16.3-16.5 3.1-3.1 7.1-5 11.5-5.6 5.9-1 12.1 1 16.5 5.2 2.3 2.3 4.8 4.4 6.3 7.3a20.9 20.9 0 0 1-.1 21.2z"/></symbol><symbol id="icon-linkedin" viewBox="0 0 512 512"><path d="M466.6-1.1H46.5C20.8-1.1 0 19.7 0 45.4v420.2c0 25.5 20.8 46.3 46.5 46.3h420.2c25.7 0 46.5-20.8 46.5-46.5v-420c-.2-25.7-21-46.5-46.6-46.5zM158.7 441.8c0 7.5-6 13.6-13.6 13.6H87.7c-7.5 0-13.6-6-13.6-13.6V200.9c0-7.5 6-13.6 13.6-13.6h57.5c7.5 0 13.6 6 13.6 13.6-.1 0-.1 240.9-.1 240.9zm-42.3-277.2c-30.2 0-54.7-24.4-54.7-54.7s24.4-54.7 54.7-54.7 54.7 24.4 54.7 54.7-24.4 54.7-54.7 54.7zM459.2 443c0 6.8-5.5 12.4-12.4 12.4h-61.6c-6.8 0-12.4-5.5-12.4-12.4V330c0-16.9 5-73.9-44.1-73.9-38 0-45.8 39.1-47.3 56.5V443c0 6.8-5.5 12.4-12.4 12.4h-59.6c-6.8 0-12.4-5.5-12.4-12.4V199.8c0-6.8 5.5-12.4 12.4-12.4H269c6.8 0 12.4 5.5 12.4 12.4v21.1c14.1-21.2 35.1-37.5 79.6-37.5 98.8 0 98.2 92.3 98.2 143V443z"/></symbol><symbol id="icon-search" viewBox="0 0 13 14"><path d="M9 6.5q0-1.45-1.03-2.47T5.5 3 3.03 4.03 2 6.5t1.03 2.47T5.5 10t2.47-1.03T9 6.5zm4 6.5q0 .4-.3.7t-.7.3q-.42 0-.7-.3l-2.68-2.67Q7.22 12 5.5 12q-1.12 0-2.14-.43t-1.75-1.18T.43 8.64 0 6.5t.43-2.14T1.61 2.6t1.75-1.17T5.5 1t2.14.43T9.4 2.6t1.17 1.76T11 6.5q0 1.72-.97 3.12l2.68 2.68q.3.28.3.7z"/></symbol><symbol id="icon-twitter" viewBox="0 0 512 512"><path d="M304.2 216.8L490.7 0h-44.2l-162 188.3L155.2 0H6l195.6 284.7L6 512h44.2l171-198.8L357.8 512H507L304.2 216.8zm-60.6 70.4l-19.8-28.3L66.1 33.3H134l127.3 182 19.8 28.3 165.4 236.6h-67.9l-135-193z"/></symbol><symbol id="icon-vimeo" viewBox="0 0 12 14"><title>vimeo-square</title><path d="M10.1 4.98q.07-1.68-1.26-1.73-1.8-.06-2.44 2.04.34-.15.64-.15.66 0 .58.75-.03.45-.58 1.3t-.82.86q-.34 0-.64-1.32-.1-.42-.35-1.99-.24-1.47-1.25-1.38-.47.05-1.29.78L1.43 5.27l.4.52q.6-.4.68-.4.45 0 .84 1.4l.35 1.28.35 1.28q.54 1.4 1.29 1.4 1.22 0 2.99-2.3 1.72-2.2 1.76-3.47zM12 3.25v7.5q0 .93-.66 1.59T9.75 13h-7.5q-.93 0-1.59-.66T0 10.75v-7.5q0-.93.66-1.59T2.25 1h7.5q.93 0 1.59.66T12 3.25z"/></symbol><symbol id="icon-xing" viewBox="0 0 512 512"><path d="M470.3 6.5C466.4.4 458.7 1.6 430 1.7c-17.2 0-34-.3-42.5.2-7.6.3-13.1 4.2-17.3 9.7l-14.1 25-61.4 108.8c-31.1 54.6-62.5 109.1-90.8 160.8L289 460.7l23.8 43.2c2.4 4.2 5.1 4.9 7.8 5.8 12.4 3.7 30.4 2.7 49.8 2.7 16.5 0 38.1.3 41.6-7.5 1.7-3.9.2-9-2.2-14.3 0 0-13.6-24.6-31.4-56.9 8.3 15 16.7 30.1 25 45.2L309 305.5c2.2 4.1 4.2 8.2 6.5 12.1-2.4-4.2-4.4-8.3-6.5-12.1l71.5-127.3c24.8-43.7 49.8-87.5 74.1-131.9l.2-.2 16.7-29.6c1.8-4.7.5-7.2-1.2-10zM178.6 128.1c-6.3-10.9-10.9-25-25.2-25.2H77.8c-4.1.5-7.8 1.7-8.7 5.4-1.4 8.2 5.6 19.4 9.5 26 9 15.3 40.4 65.4 40.1 70.9-.2 3.7-49.5 87.9-70.9 126.1-3.2 5.6-10 15.8-7.8 20.6 2.2 4.8 6.8 6.6 9.5 6.3H126c15.6-1.9 16.3-10.2 30.8-36.2 22.1-39.9 45.5-80.6 66.3-117.4-13-23.9-30-51.4-44.5-76.5z"/></symbol><symbol id="icon-youtube" viewBox="0 0 512 512"><path d="M405.8 75.9H106.3C47.7 75.9 0 123.5 0 182.2v149.6c0 58.8 47.7 106.3 106.3 106.3h299.4c58.8 0 106.3-47.7 106.3-106.3V182.2c.1-58.7-47.5-106.3-106.2-106.3zm-72 188.5l-140.1 66.8c-3.8 1.8-8-.9-8-5.1V188.3c0-4.2 4.4-6.9 8.1-5l140.1 71c4.2 2.1 4.1 8-.1 10.1z"/></symbol><symbol id="icon-googleplus" viewBox="0 0 12 14"><title>google-plus-square</title><path fill="#444" d="M6.477 9.516q0 .594-.457.879t-1.09.285q-.32 0-.629-.074t-.59-.223-.453-.414-.172-.609q0-.359.195-.625t.512-.402.641-.195.66-.059q.156 0 .242.016.016.008.18.129t.203.148.18.141.191.172.148.176.133.203.07.207.035.246zm-.579-4.258q0 .469-.258.777t-.719.309q-.414 0-.727-.332t-.449-.754-.137-.828q0-.477.25-.813t.719-.336q.414 0 .73.352t.453.789.137.836zm.829-2.008l.688-.5h-2.07q-.664 0-1.258.25t-.996.766-.402 1.195q0 .727.504 1.207t1.238.48q.172 0 .336-.023-.102.227-.102.422 0 .344.312.734-1.367.094-2.008.492-.367.227-.59.57t-.223.742q0 .336.145.605t.379.441.539.289.605.164.598.047q.469 0 .941-.121t.887-.359.672-.645.258-.914q0-.383-.156-.699t-.383-.52-.453-.371-.383-.344-.156-.348.121-.332.293-.309.344-.328.293-.465.121-.645q0-.469-.176-.777t-.566-.707h.648zM9 6.75h1v-.5H9v-1h-.5v1h-1v.5h1V8H9V6.75zm3-3.5v7.5q0 .93-.66 1.59T9.75 13h-7.5q-.93 0-1.59-.66T0 10.75v-7.5q0-.93.66-1.59T2.25 1h7.5q.93 0 1.59.66T12 3.25z"/></symbol><symbol id="icon-pinterest" viewBox="0 0 10 14"><title>pinterest-p</title><path fill="#444" d="M0 4.664q0-.844.293-1.59t.809-1.301T2.289.812 3.734.203 5.312 0q1.234 0 2.297.52t1.727 1.512T10 4.274q0 .75-.148 1.469t-.469 1.383-.781 1.168-1.133.805-1.477.301q-.531 0-1.055-.25t-.75-.688q-.078.305-.219.879t-.184.742-.16.555-.203.555-.25.488-.359.605-.484.676l-.109.039-.07-.078q-.117-1.227-.117-1.469 0-.719.168-1.613t.52-2.246.406-1.586q-.25-.508-.25-1.32 0-.648.406-1.219t1.031-.57q.477 0 .742.316t.266.801q0 .516-.344 1.492T4.633 6.97q0 .492.352.816t.852.324q.43 0 .797-.195t.613-.531.438-.742.297-.863.156-.867.051-.777q0-1.352-.855-2.105t-2.23-.754q-1.563 0-2.609 1.012T1.448 4.854q0 .344.098.664t.211.508.211.355.098.238q0 .219-.117.57t-.289.352q-.016 0-.133-.023-.398-.117-.707-.438t-.477-.738-.254-.844-.086-.832z"/></symbol></svg>