<?xml version="1.0" encoding="UTF-8"?><svg xmlns="http://www.w3.org/2000/svg" viewBox="0 0 189.57 77.31"><defs><style>.c{fill:#004da0;}</style></defs><g id="a"><g><path class="c" d="M30.99,41.39c0-4.88-3.55-9.51-9.08-9.51s-9.8,4.74-9.8,10.12c0,1.51,.27,2.93,.78,4.21-.2-.03-.41-.04-.64-.04H6V28.86c0-2.05-1.22-3.09-2.91-3.09S.19,26.81,.19,28.86v19.78c0,1.87,1.4,2.91,2.91,2.91H12.25c1.56,0,2.57-.79,2.84-2.02,1.68,1.62,4,2.6,6.82,2.6,4.24,0,8.8-1.8,8.8-4.52,0-1.44-1.08-2.41-2.33-2.41s-2.98,1.76-5.74,1.76c-3.59,0-4.49-1.94-4.49-3.12h10.12c1.8,0,2.73-.47,2.73-2.44m-12.85-1.4c0-1.26,1.44-3.37,3.63-3.37s3.62,2.12,3.62,3.37h-7.25Z"/><path class="c" d="M42.54,31.87c-2.41,0-3.91,.75-4.81,2.15-.36-.83-1.29-1.8-2.8-1.8-1.65,0-2.8,1.29-2.8,2.91v13.71c0,1.62,1.15,2.91,2.8,2.91s2.8-1.29,2.8-2.91v-8.87c0-1.94,1.15-3.37,3.09-3.37s3.09,1.44,3.09,3.37v8.87c0,1.62,1.15,2.91,2.8,2.91s2.8-1.29,2.8-2.91v-10.38c0-4.59-3.09-6.61-6.97-6.61"/><path class="c" d="M64.41,46.38h-5.92l7.68-10.3c.47-.65,.72-1.11,.72-1.62s-.14-.97-.5-1.33c-.54-.54-1.08-.68-2.12-.68h-10.77c-1.8,0-2.94,.79-2.94,2.59s1.15,2.58,2.94,2.58h4.92l-7.18,9.87c-.83,1.15-.86,1.65-.86,2.08,0,.36,.11,1.11,.83,1.58,.5,.29,.83,.39,1.87,.39h11.34c1.8,0,2.94-.79,2.94-2.59s-1.15-2.58-2.94-2.58"/><path class="c" d="M82.61,45.19c-1.29,0-2.98,1.76-5.74,1.76-3.59,0-4.49-1.94-4.49-3.12h10.12c1.8,0,2.73-.47,2.73-2.44,0-4.88-3.56-9.51-9.08-9.51s-9.8,4.74-9.8,10.12,3.77,10.12,9.8,10.12c4.24,0,8.8-1.8,8.8-4.52,0-1.44-1.08-2.41-2.33-2.41m-6.61-8.58c2.19,0,3.63,2.12,3.63,3.37h-7.25c0-1.26,1.44-3.37,3.63-3.37"/></g></g><g id="b"><g><path d="M106.55,46.01c.47,0,.88,.1,1.22,.3,.34,.2,.6,.49,.78,.86,.18,.37,.27,.8,.27,1.3v.56h-3.69c.01,.58,.16,1.03,.45,1.34,.29,.31,.7,.47,1.22,.47,.35,0,.65-.03,.92-.1s.55-.16,.84-.29v.83c-.27,.13-.55,.22-.82,.27-.27,.06-.6,.09-.98,.09-.53,0-.99-.1-1.38-.32-.4-.21-.71-.52-.93-.94-.22-.41-.33-.92-.33-1.53s.1-1.11,.3-1.54c.2-.43,.48-.75,.85-.98s.79-.34,1.29-.34Zm0,.77c-.4,0-.72,.13-.97,.39s-.39,.64-.43,1.12h2.67c0-.3-.05-.56-.14-.79-.09-.23-.23-.4-.42-.53-.19-.13-.43-.19-.72-.19Z"/><path d="M112.94,46.01c.63,0,1.11,.16,1.45,.47,.34,.32,.51,.82,.51,1.52v3.54h-.98v-3.41c0-.43-.1-.76-.29-.98s-.48-.33-.88-.33c-.56,0-.96,.17-1.18,.5-.23,.33-.34,.81-.34,1.45v2.77h-.99v-5.44h.78l.14,.77h.05c.12-.19,.26-.35,.44-.48s.38-.22,.59-.29,.45-.1,.69-.1Z"/><path d="M118.26,53.97c-.73,0-1.29-.13-1.68-.4-.39-.27-.58-.64-.58-1.12,0-.34,.11-.63,.32-.86,.21-.24,.51-.39,.9-.48-.15-.07-.27-.17-.37-.3-.1-.14-.16-.29-.16-.46,0-.2,.06-.37,.17-.52,.11-.15,.28-.29,.51-.43-.29-.12-.52-.31-.69-.59-.17-.27-.26-.6-.26-.96,0-.39,.08-.73,.25-1s.41-.49,.72-.63c.31-.15,.69-.22,1.14-.22,.1,0,.2,0,.31,.01,.1,0,.21,.02,.3,.04s.17,.03,.23,.05h1.88v.59l-.97,.15c.1,.12,.17,.27,.23,.44,.06,.17,.09,.36,.09,.56,0,.55-.19,.99-.56,1.31-.38,.32-.9,.48-1.56,.48-.15,0-.31-.02-.47-.04-.14,.08-.25,.17-.32,.27-.07,.1-.11,.21-.11,.33,0,.1,.03,.17,.1,.23,.06,.06,.16,.1,.28,.13,.12,.03,.27,.04,.44,.04h.95c.59,0,1.05,.12,1.36,.38,.32,.25,.47,.62,.47,1.1,0,.61-.25,1.08-.75,1.41-.5,.33-1.22,.49-2.16,.49Zm.03-.73c.42,0,.78-.04,1.06-.13s.5-.21,.64-.37c.14-.16,.22-.35,.22-.56,0-.2-.05-.35-.14-.45s-.23-.17-.42-.21c-.18-.04-.41-.05-.68-.05h-.9c-.23,0-.43,.04-.6,.11-.17,.07-.3,.18-.4,.31-.1,.14-.14,.3-.14,.51,0,.27,.12,.48,.35,.63,.24,.14,.57,.22,1,.22Zm.22-4.29c.37,0,.64-.1,.82-.29,.18-.19,.27-.47,.27-.83,0-.38-.09-.67-.28-.87-.18-.19-.46-.29-.82-.29s-.62,.1-.81,.3-.28,.49-.28,.87c0,.35,.09,.62,.28,.82s.46,.29,.81,.29Z"/><path d="M123,44.05c.16,0,.29,.05,.41,.14,.11,.09,.17,.24,.17,.45s-.06,.36-.17,.45c-.11,.09-.25,.14-.41,.14s-.3-.05-.41-.14-.17-.24-.17-.45,.05-.36,.17-.45c.11-.09,.25-.14,.41-.14Zm.49,2.06v5.44h-.99v-5.44h.99Z"/><path d="M127.83,46.01c.63,0,1.11,.16,1.45,.47,.34,.32,.51,.82,.51,1.52v3.54h-.98v-3.41c0-.43-.1-.76-.29-.98s-.48-.33-.88-.33c-.56,0-.96,.17-1.18,.5-.23,.33-.34,.81-.34,1.45v2.77h-.99v-5.44h.78l.14,.77h.05c.12-.19,.26-.35,.44-.48s.38-.22,.59-.29,.45-.1,.69-.1Z"/><path d="M133.53,46.01c.47,0,.88,.1,1.22,.3,.34,.2,.6,.49,.78,.86,.18,.37,.27,.8,.27,1.3v.56h-3.69c.01,.58,.16,1.03,.45,1.34,.29,.31,.7,.47,1.22,.47,.35,0,.65-.03,.92-.1s.55-.16,.84-.29v.83c-.27,.13-.55,.22-.82,.27-.27,.06-.6,.09-.98,.09-.53,0-.99-.1-1.38-.32-.4-.21-.71-.52-.93-.94-.22-.41-.33-.92-.33-1.53s.1-1.11,.3-1.54c.2-.43,.48-.75,.85-.98s.79-.34,1.29-.34Zm0,.77c-.4,0-.72,.13-.97,.39s-.39,.64-.43,1.12h2.67c0-.3-.05-.56-.14-.79-.09-.23-.23-.4-.42-.53-.19-.13-.43-.19-.72-.19Z"/><path d="M139.35,46.01c.47,0,.88,.1,1.22,.3,.34,.2,.6,.49,.78,.86,.18,.37,.27,.8,.27,1.3v.56h-3.69c.01,.58,.16,1.03,.45,1.34,.29,.31,.7,.47,1.22,.47,.35,0,.65-.03,.92-.1s.55-.16,.84-.29v.83c-.27,.13-.55,.22-.82,.27-.27,.06-.6,.09-.98,.09-.53,0-.99-.1-1.38-.32-.4-.21-.71-.52-.93-.94-.22-.41-.33-.92-.33-1.53s.1-1.11,.3-1.54c.2-.43,.48-.75,.85-.98s.79-.34,1.29-.34Zm0,.77c-.4,0-.72,.13-.97,.39s-.39,.64-.43,1.12h2.67c0-.3-.05-.56-.14-.79-.09-.23-.23-.4-.42-.53-.19-.13-.43-.19-.72-.19Z"/><path d="M145.66,46.01c.1,0,.21,0,.32,.02,.12,.01,.21,.03,.3,.04l-.1,.92c-.08-.02-.17-.04-.27-.05-.1-.01-.2-.02-.29-.02-.21,0-.41,.04-.6,.12-.19,.08-.36,.19-.5,.34-.15,.15-.26,.33-.34,.55-.08,.22-.12,.46-.12,.74v2.88h-1v-5.44h.8l.12,.98h.04c.11-.2,.25-.38,.41-.54,.16-.16,.34-.3,.55-.39,.21-.1,.44-.15,.69-.15Z"/><path d="M149.26,46.01c.47,0,.88,.1,1.22,.3,.34,.2,.6,.49,.78,.86,.18,.37,.27,.8,.27,1.3v.56h-3.69c.01,.58,.16,1.03,.45,1.34,.29,.31,.7,.47,1.22,.47,.35,0,.65-.03,.92-.1s.55-.16,.84-.29v.83c-.27,.13-.55,.22-.82,.27-.27,.06-.6,.09-.98,.09-.53,0-.99-.1-1.38-.32-.4-.21-.71-.52-.93-.94-.22-.41-.33-.92-.33-1.53s.1-1.11,.3-1.54c.2-.43,.48-.75,.85-.98s.79-.34,1.29-.34Zm0,.77c-.4,0-.72,.13-.97,.39s-.39,.64-.43,1.12h2.67c0-.3-.05-.56-.14-.79-.09-.23-.23-.4-.42-.53-.19-.13-.43-.19-.72-.19Z"/><path d="M154.88,51.64c-.66,0-1.2-.23-1.59-.71-.4-.47-.59-1.17-.59-2.09s.2-1.64,.6-2.12c.4-.48,.94-.72,1.61-.72,.28,0,.52,.04,.74,.11s.39,.18,.55,.3c.15,.12,.28,.27,.38,.42h.06c-.02-.1-.03-.25-.05-.43s-.02-.35-.02-.48v-2.07h.99v7.68h-.78l-.16-.75h-.04c-.1,.16-.22,.3-.38,.43-.15,.13-.34,.23-.55,.31-.21,.08-.46,.11-.75,.11Zm.23-.81c.54,0,.92-.15,1.14-.46s.33-.77,.34-1.38v-.15c0-.65-.11-1.15-.32-1.49-.21-.35-.6-.52-1.17-.52-.46,0-.81,.18-1.04,.54-.23,.36-.35,.86-.35,1.5s.12,1.12,.35,1.46c.23,.34,.58,.51,1.05,.51Z"/><path d="M163.52,50.84c.14,0,.28-.01,.43-.04,.15-.02,.27-.06,.38-.1v.76c-.11,.05-.26,.09-.45,.13-.19,.03-.38,.05-.57,.05-.3,0-.56-.05-.8-.15s-.43-.28-.57-.52c-.14-.25-.21-.59-.21-1.03v-3.07h-.75v-.46l.79-.37,.35-1.17h.61v1.23h1.57v.77h-1.57v3.05c0,.31,.07,.53,.22,.69s.34,.23,.59,.23Z"/><path d="M170.13,48.81c0,.45-.06,.85-.17,1.2-.12,.35-.29,.65-.51,.89-.22,.24-.49,.43-.8,.55s-.67,.19-1.06,.19c-.37,0-.71-.06-1.01-.19s-.57-.31-.8-.55c-.22-.24-.4-.54-.52-.89-.12-.35-.18-.75-.18-1.2,0-.6,.1-1.1,.31-1.52s.5-.74,.88-.96,.83-.33,1.36-.33,.94,.11,1.32,.33c.38,.22,.67,.54,.88,.96,.21,.42,.32,.92,.32,1.52Zm-4.04,0c0,.42,.05,.78,.16,1.08,.11,.3,.27,.53,.49,.69,.22,.16,.51,.24,.86,.24s.63-.08,.85-.24c.22-.16,.39-.39,.49-.69,.11-.3,.16-.66,.16-1.08s-.05-.77-.16-1.07c-.11-.3-.27-.52-.49-.68-.22-.16-.51-.24-.87-.24-.52,0-.9,.17-1.14,.52s-.36,.83-.36,1.46Z"/><path d="M178.33,51.53l-.83-2.84c-.04-.13-.08-.27-.12-.42-.04-.15-.08-.31-.12-.46-.04-.15-.08-.3-.11-.43s-.06-.24-.07-.32h-.04c-.02,.08-.04,.19-.07,.32-.03,.13-.06,.28-.1,.43-.04,.16-.08,.31-.12,.47-.04,.16-.08,.3-.12,.43l-.87,2.83h-1.1l-1.51-5.43h1.01l.75,2.85c.05,.19,.1,.39,.14,.59,.05,.2,.09,.4,.12,.58,.03,.18,.06,.34,.07,.46h.04c.02-.09,.04-.19,.06-.32,.02-.13,.05-.26,.08-.4,.03-.14,.06-.28,.1-.41,.03-.13,.07-.25,.1-.35l.92-3.01h1.08l.88,3.01c.04,.14,.09,.31,.13,.49s.09,.36,.12,.53c.04,.17,.06,.32,.07,.45h.04c.01-.11,.04-.26,.07-.43s.08-.37,.12-.58c.05-.21,.1-.41,.15-.61l.75-2.85h1l-1.52,5.43h-1.12Z"/><path d="M182.6,44.05c.16,0,.29,.05,.41,.14,.11,.09,.17,.24,.17,.45s-.06,.36-.17,.45c-.11,.09-.25,.14-.41,.14s-.3-.05-.41-.14-.17-.24-.17-.45,.05-.36,.17-.45c.11-.09,.25-.14,.41-.14Zm.49,2.06v5.44h-.99v-5.44h.99Z"/><path d="M187.46,46.01c.63,0,1.11,.16,1.45,.47,.34,.32,.51,.82,.51,1.52v3.54h-.98v-3.41c0-.43-.1-.76-.29-.98s-.48-.33-.88-.33c-.56,0-.96,.17-1.18,.5-.23,.33-.34,.81-.34,1.45v2.77h-.99v-5.44h.78l.14,.77h.05c.12-.19,.26-.35,.44-.48s.38-.22,.59-.29,.45-.1,.69-.1Z"/></g></g></svg>